<svg xmlns="http://www.w3.org/2000/svg" viewBox="0 0 473.54 75.65"><defs><style>.cls-1{fill:#00a2e5;}.cls-2{fill:#868686;}</style></defs><title>fit_logo</title><g id="レイヤー_2" data-name="レイヤー 2"><g id="レイヤー_1-2" data-name="レイヤー 1"><path class="cls-1" d="M166.82,51.17h28.59V75.43h-4.88v-2.3h-19v2.41h-4.72V55.24l-2.41,3.34c-1.1-1.42-3.19-3.84-5-5.76V75.54h-5V55.89a45.72,45.72,0,0,1-6.53,5.6,21.9,21.9,0,0,0-2.47-4.72,43.37,43.37,0,0,0,14.93-16.85H147.34V35.31h7V25.22h5V35.31h3.41l.87-.16L166.55,37a53.88,53.88,0,0,1-6,11.36c1.64,1.31,4.72,4.11,6.25,5.48Zm28.87-23.48V32H166.55V27.69ZM193,35.1V48.16H169.62V35.1ZM171.54,55.4v4.77h7V55.4Zm0,13.61h7V64.07h-7ZM188.28,39.1h-14.1v5.1h14.1Zm2.25,16.3h-7.35v4.77h7.35Zm0,13.61V64.07h-7.35V69Z"/><path class="cls-1" d="M249.37,69.78c0,2.74-.6,4.17-2.36,5s-4.44.88-8.83.88a23.55,23.55,0,0,0-1.7-4.78c2.91.17,5.81.17,6.69.12s1.21-.33,1.21-1.27V32.79H208.87V75.54h-5V28h45.49Zm-14.7-1.59V65.5H218v3.56H213.7V50.68H218V61.27H224V47.11H211.12V42.83h7.19a26.78,26.78,0,0,0-3.67-8.06l4.06-1.38a24.33,24.33,0,0,1,4,8l-3.84,1.42h14.92l-3.67-1.09a55.23,55.23,0,0,0,3.67-8.68l5,1.32A95.22,95.22,0,0,1,234,42.83h8.45v4.28H228.63V61.27h6V50.68h4.39V68.19Z"/><path class="cls-1" d="M306,66.48v5.11H256.91V66.48h21.45V36.41H259.81V31.14h43.36v5.27h-19.1V66.48Z"/><path class="cls-1" d="M343.13,62.86a50.58,50.58,0,0,0,18.61,7.47,22.54,22.54,0,0,0-3.41,4.55,49.06,49.06,0,0,1-19.64-10.31v11h-5V65a54.47,54.47,0,0,1-19.48,9.88,22.69,22.69,0,0,0-3.35-4.34,53.3,53.3,0,0,0,18.5-7.63h-17V58.58h21.29V55.24H317.5V51.39h16.19V48.1H314.82V44h11.24a26.6,26.6,0,0,0-2.3-5l1.32-.22H312.62V34.55h8.12a41.33,41.33,0,0,0-4-7.41l4.44-1.48a38.25,38.25,0,0,1,4.39,7.84l-2.8,1h6V25.16h4.77v9.39H339V25.16h4.83v9.39h5.92l-2.08-.66a48.27,48.27,0,0,0,3.84-8.12l5.27,1.31a86.1,86.1,0,0,1-4.56,7.47h7.9v4.28H349.55c-1,1.86-2.14,3.67-3.07,5.21h11.63V48.1H338.69v3.29h16.84v3.85H338.69v3.34h21.62v4.28Zm-14.1-24a23.14,23.14,0,0,1,2.36,4.88L329.8,44h11.58a51.53,51.53,0,0,0,2.41-5.21Z"/><path class="cls-1" d="M395.23,45.69c3.73,11.41,10.64,20.69,21,25a20.29,20.29,0,0,0-3.78,4.77c-10.27-4.77-16.9-13.66-21.19-25.29-2.79,9.93-8.72,19.42-21.18,25.29a17.93,17.93,0,0,0-3.89-4.28c13.06-5.7,18.38-15.58,20.57-25.51H367.29V40.42h20.42a138.65,138.65,0,0,0,.66-15.15h5.54a139.47,139.47,0,0,1-.77,15.15h22.12v5.27Z"/><path class="cls-1" d="M470.31,60.67H448.69v9.16c0,2.8-.71,4.23-3,5s-5.49.76-10.26.76a28.42,28.42,0,0,0-2.14-4.93c3.84.16,7.68.16,8.78.11s1.37-.28,1.37-1.1v-9h-21.4V56h21.4V52.16h2.58a43.55,43.55,0,0,0,6.2-4.11H431.41V43.6h25.73l1.1-.27,3.29,2.47a49.37,49.37,0,0,1-12.84,9.44V56h21.62Zm-42.53-14H423V34.11h7.9a34.45,34.45,0,0,0-4.28-6.31l4.39-2a33.62,33.62,0,0,1,5.1,7.35l-2,.94H444.3a40.55,40.55,0,0,0-3.84-7.52l4.44-1.65a32.41,32.41,0,0,1,4.45,8.12l-2.69,1h9.28a57.77,57.77,0,0,0,5.32-8.56l5.38,1.7c-1.6,2.36-3.41,4.77-5.11,6.86h8V46.67h-5.05V38.61H427.78Z"/><path class="cls-1" d="M0,2.12H43.46V16.2H16.38V31.71H39.61V45.88H16.38v27H0Z"/><path class="cls-1" d="M55.26,2.12H71.63V72.9H55.26Z"/><path class="cls-1" d="M100.45,16.2H82.06V2.12h53.25V16.2H116.83V72.9H100.45Z"/><path class="cls-2" d="M156.23,4.38H150.1V8.76H156v2.48H150.1v7.93h-2.7V1.89h8.83Z"/><path class="cls-2" d="M161.41,8.26v6.25a3.06,3.06,0,0,0,.48,2,2.26,2.26,0,0,0,3.38,0,3.06,3.06,0,0,0,.48-2V8.26h2.59v6.32a4.52,4.52,0,0,1-1.19,3.58,5.17,5.17,0,0,1-3.62,1.35A5,5,0,0,1,160,18.16a4.52,4.52,0,0,1-1.19-3.58V8.26Z"/><path class="cls-2" d="M174.2.29V11.92l3.62-3.66h3.44l-4.78,4.54,5.12,6.37h-3.27l-3.65-4.66-.48.46v4.2h-2.59V.29Z"/><path class="cls-2" d="M185.59,8.26v6.25a3.06,3.06,0,0,0,.48,2,2.26,2.26,0,0,0,3.38,0,3.06,3.06,0,0,0,.48-2V8.26h2.59v6.32a4.52,4.52,0,0,1-1.19,3.58,5.15,5.15,0,0,1-3.62,1.35,5,5,0,0,1-3.52-1.35A4.52,4.52,0,0,1,183,14.58V8.26Z"/><path class="cls-2" d="M207.11,13.73a5.95,5.95,0,1,1-6-5.75A5.73,5.73,0,0,1,207.11,13.73Zm-2.64,0a3.31,3.31,0,1,0-6.61,0,3.31,3.31,0,1,0,6.61,0Z"/><path class="cls-2" d="M212.39.29V11.92L216,8.26h3.43l-4.78,4.54,5.12,6.37h-3.27l-3.65-4.66-.48.46v4.2H209.8V.29Z"/><path class="cls-2" d="M229.63,8.26h2.59V19.17h-2.59V18a4.35,4.35,0,0,1-3.33,1.48c-3.44,0-5.4-2.8-5.4-5.81A5.38,5.38,0,0,1,226.32,8a4.12,4.12,0,0,1,3.31,1.55Zm-6.08,5.49a3.21,3.21,0,0,0,3.09,3.48,3.14,3.14,0,0,0,3.14-3.45c0-2.38-1.5-3.52-3.14-3.52A3.19,3.19,0,0,0,223.55,13.75Z"/><path class="cls-2" d="M244.82,1.89V19.17h-2.69V1.89Z"/><path class="cls-2" d="M248.55,8.26h2.59v1a3.89,3.89,0,0,1,3-1.29,3.78,3.78,0,0,1,3.28,1.47,4.85,4.85,0,0,1,.68,3v6.68h-2.58V13.11c0-2.77-1.06-2.85-2-2.85-1.16,0-2.35.15-2.35,3.68v5.23h-2.59Z"/><path class="cls-2" d="M266.25,11.14a1.86,1.86,0,0,0-1.58-.93,1.11,1.11,0,0,0-.79.28.79.79,0,0,0-.24.57.68.68,0,0,0,.37.62c.16.11.31.16.87.44l1.32.65a5.45,5.45,0,0,1,1.56,1,2.66,2.66,0,0,1,.82,2,3.58,3.58,0,0,1-1,2.49,4,4,0,0,1-3.12,1.22,3.91,3.91,0,0,1-2.4-.7,4.28,4.28,0,0,1-1.43-2l2.12-1a2.86,2.86,0,0,0,.6,1,1.75,1.75,0,0,0,2.2.06,1.3,1.3,0,0,0,.37-.86,1.17,1.17,0,0,0-.35-.83,3.26,3.26,0,0,0-1.11-.67l-1-.44a5.75,5.75,0,0,1-1.53-.93,2.37,2.37,0,0,1-.79-1.84A3.36,3.36,0,0,1,262.13,9a3.61,3.61,0,0,1,2.72-1,3.52,3.52,0,0,1,2.07.57,3.78,3.78,0,0,1,1.26,1.35Z"/><path class="cls-2" d="M273.57,10.59v8.58H271V10.59H269.9V8.26H271v-4h2.58v4h2v2.33Z"/><path class="cls-2" d="M278.6,2.12a1.61,1.61,0,0,1,1.66,1.64,1.67,1.67,0,0,1-3.33,0A1.62,1.62,0,0,1,278.6,2.12Zm1.29,6.14V19.17H277.3V8.26Z"/><path class="cls-2" d="M285.84,10.59v8.58h-2.59V10.59h-1.08V8.26h1.08v-4h2.59v4h2v2.33Z"/><path class="cls-2" d="M292.15,8.26v6.25a3.06,3.06,0,0,0,.48,2,2.26,2.26,0,0,0,3.38,0,3.06,3.06,0,0,0,.48-2V8.26h2.59v6.32a4.52,4.52,0,0,1-1.19,3.58,5.15,5.15,0,0,1-3.62,1.35,5,5,0,0,1-3.52-1.35,4.51,4.51,0,0,1-1.18-3.58V8.26Z"/><path class="cls-2" d="M305,10.59v8.58h-2.59V10.59h-1.09V8.26h1.09v-4H305v4h2v2.33Z"/><path class="cls-2" d="M318.72,16.68a5.76,5.76,0,0,1-1.88,2,6.23,6.23,0,0,1-3.28.83,5,5,0,0,1-3.75-1.4,5.79,5.79,0,0,1-1.64-4.17,6.35,6.35,0,0,1,1.77-4.49A5.15,5.15,0,0,1,313.67,8a4.86,4.86,0,0,1,3.57,1.42A6.51,6.51,0,0,1,318.8,14v.31h-8a3.62,3.62,0,0,0,1,2.21,2.68,2.68,0,0,0,2,.7,2.77,2.77,0,0,0,1.77-.55,3.83,3.83,0,0,0,1-1.19Zm-2.57-4.43a2.56,2.56,0,0,0-.79-1.47,2.51,2.51,0,0,0-1.74-.62,2.58,2.58,0,0,0-1.83.69,2.86,2.86,0,0,0-.79,1.4Z"/><path class="cls-2" d="M339,13.73A5.95,5.95,0,1,1,333,8,5.73,5.73,0,0,1,339,13.73Zm-2.64,0a3.31,3.31,0,1,0-6.61,0,3.31,3.31,0,1,0,6.61,0Z"/><path class="cls-2" d="M344.51,10.59v8.58h-2.59V10.59h-1.11V8.26h1.11V4.48A4.76,4.76,0,0,1,343,1.06,3.51,3.51,0,0,1,345.65,0a4.25,4.25,0,0,1,1.66.31V2.82a2.25,2.25,0,0,0-1.24-.38,1.54,1.54,0,0,0-1.14.41,1.8,1.8,0,0,0-.42,1.3V8.26h2.8v2.33Z"/><path class="cls-2" d="M360.32,4.38V19.17h-2.7V4.38h-4V1.89h10.78V4.38Z"/><path class="cls-2" d="M375.17,16.68a5.76,5.76,0,0,1-1.88,2,6.17,6.17,0,0,1-3.27.83,5,5,0,0,1-3.76-1.4,5.83,5.83,0,0,1-1.64-4.17,6.32,6.32,0,0,1,1.78-4.49A5.13,5.13,0,0,1,370.12,8a4.86,4.86,0,0,1,3.57,1.42A6.46,6.46,0,0,1,375.25,14v.31h-8a3.55,3.55,0,0,0,1,2.21,2.71,2.71,0,0,0,2,.7,2.77,2.77,0,0,0,1.77-.55,3.7,3.7,0,0,0,1-1.19Zm-2.56-4.43a2.63,2.63,0,0,0-.8-1.47,2.75,2.75,0,0,0-3.56.07,3,3,0,0,0-.8,1.4Z"/><path class="cls-2" d="M386.56,11.6a4.44,4.44,0,0,0-3.14-1.34,3.34,3.34,0,0,0-2.46,1,3.41,3.41,0,0,0-.95,2.51,3.61,3.61,0,0,0,1,2.62,3.42,3.42,0,0,0,2.35.88,4.4,4.4,0,0,0,3.2-1.4v2.82a6.13,6.13,0,0,1-3.38.86A5.48,5.48,0,0,1,379,17.9a5.62,5.62,0,0,1-1.59-4.09,5.78,5.78,0,0,1,1.69-4.22A6.12,6.12,0,0,1,383.52,8a6,6,0,0,1,3,.78Z"/><path class="cls-2" d="M389.05.29h2.59V9.2a4,4,0,0,1,3-1.22,3.84,3.84,0,0,1,3.28,1.47,5.28,5.28,0,0,1,.71,3v6.68H396V12.72a2.59,2.59,0,0,0-.5-1.89,2,2,0,0,0-1.45-.57,2.31,2.31,0,0,0-1.91.91,4.86,4.86,0,0,0-.52,2.74v5.26h-2.59Z"/><path class="cls-2" d="M401.86,8.26h2.59v1a3.9,3.9,0,0,1,3-1.29,3.74,3.74,0,0,1,3.27,1.47,4.78,4.78,0,0,1,.69,3v6.68h-2.59V13.11c0-2.77-1.06-2.85-2-2.85-1.17,0-2.36.15-2.36,3.68v5.23h-2.59Z"/><path class="cls-2" d="M426,13.73A5.95,5.95,0,1,1,420.07,8,5.73,5.73,0,0,1,426,13.73Zm-2.64,0a3.31,3.31,0,1,0-6.61,0,3.31,3.31,0,1,0,6.61,0Z"/><path class="cls-2" d="M431.31.29V19.17h-2.59V.29Z"/><path class="cls-2" d="M445.9,13.73A6,6,0,1,1,440,8,5.74,5.74,0,0,1,445.9,13.73Zm-2.65,0a3.31,3.31,0,1,0-6.61,0,3.31,3.31,0,1,0,6.61,0Z"/><path class="cls-2" d="M456.73,8.26h2.59v10c0,2.56-.29,4.4-1.82,5.67a5.74,5.74,0,0,1-3.7,1.17,5,5,0,0,1-3.65-1.35,6.1,6.1,0,0,1-1.64-3.39H451a3.64,3.64,0,0,0,.82,1.71,2.71,2.71,0,0,0,2,.75,2.84,2.84,0,0,0,2-.73,3.55,3.55,0,0,0,.84-2.74V18a4.06,4.06,0,0,1-3.38,1.56A4.78,4.78,0,0,1,449.67,18,6.12,6.12,0,0,1,448,13.7a5.75,5.75,0,0,1,1.64-4.22A5.13,5.13,0,0,1,453.43,8a4.22,4.22,0,0,1,3.3,1.47ZM451.79,11a3.77,3.77,0,0,0-1.14,2.77,3.73,3.73,0,0,0,1.11,2.75,3.05,3.05,0,0,0,2,.73,2.87,2.87,0,0,0,2.16-.88,3.59,3.59,0,0,0,1-2.57A3.63,3.63,0,0,0,455.83,11a2.77,2.77,0,0,0-2.08-.77A2.72,2.72,0,0,0,451.79,11Z"/><path class="cls-2" d="M465.88,17.46l-4.76-9.2h3.12l3.17,6.38,3.22-6.38h2.91L464.69,25.1h-2.91Z"/></g></g></svg>