<svg xmlns="http://www.w3.org/2000/svg" viewBox="0 0 458.64 264.69"><defs><style>.cls-1,.cls-2{fill:#e51110;}.cls-2{font-size:23.95px;font-family:FaricyNew-Bold, Faricy New;font-weight:700;}</style></defs><title>fit_jc_logo</title><g id="レイヤー_2" data-name="レイヤー 2"><g id="レイヤー_1-2" data-name="レイヤー 1"><path class="cls-1" d="M116.62,1.2V161.69h-.22C113,201,75.53,192.83,61,183.24c-5.44-5.5-7.25-12-7.25-21.55h0v-24H3v35.93C3,176.06,6.65,206,28.4,218H142s16.92-9.58,24.18-28.75c0,0,14.5,21.56,33.83,28.75H323.29s41.09-21.56,50.76-71.86H320.87s-4.84,38.32-55.59,43.11-62.85-43.11-62.85-43.11-12.08-38.33,2.42-79.05,94.27-57.49,116,2.4h53.18s0-43.12-55.6-69.47H204.85S180.68,12,171,26.35l-1.21,3.59V1.2Z"/><polygon class="cls-1" points="407.88 31.14 407.88 59.88 383.71 50.3 378.88 67.07 403.05 76.65 386.13 98.21 400.63 110.19 417.55 88.63 434.47 110.19 451.39 98.21 432.06 76.65 458.64 69.47 451.39 50.3 427.22 59.88 427.22 31.14 407.88 31.14"/><polygon class="cls-1" points="1.81 88.63 1.81 131.74 13.9 131.74 13.9 112.58 33.23 112.58 33.23 105.39 13.9 105.39 13.9 95.81 35.65 95.81 35.65 88.63 1.81 88.63 1.81 88.63"/><polygon class="cls-1" points="40.49 88.63 40.49 131.74 50.16 131.74 50.16 88.63 40.49 88.63 40.49 88.63"/><polygon class="cls-1" points="52.57 88.63 52.57 98.21 64.66 98.21 64.66 131.74 76.74 131.74 76.74 95.81 88.83 95.81 88.83 88.63 52.57 88.63 52.57 88.63 52.57 88.63"/><text class="cls-2" transform="translate(0 239) scale(0.81 0.9)">Fukuoka Institute of Technology, Junior College</text><text class="cls-2" transform="translate(0 239) scale(0.81 0.9)">Fukuoka Institute of Technology, Junior College</text></g></g></svg>