<svg xmlns="http://www.w3.org/2000/svg" viewBox="0 0 450 50">
  <defs>
    <style>
      .cls-1{
        font-size:32.36px;
        fill:#585657;
        font-family:SourceHanSansJP-Medium-90ms-RKSJ-H, Source Han Sans JP;
      }

      .cls-2,.cls-3{
        fill:#e51110;
      }

      .cls-3{
        font-size:4.32px;
        font-family:FaricyNew-Bold, Faricy New;
        font-weight:700;
      }
    </style>
  </defs>
  <title>fit_jc_banner</title>
  <g id="レイヤー_2" data-name="レイヤー 2">
    <g id="レイヤー_1-2" data-name="レイヤー 1">
      <text class="cls-1" transform="translate(89.8 32.53)">福岡工業大学短期大学部</text>
      <path class="cls-2" d="M21,.22v29h0c-.62,7.09-7.37,5.62-10,3.89A5,5,0,0,1,9.7,29.18h0V24.85H.55v6.49c0,.43.65,5.83,4.57,8h20.5A11,11,0,0,0,30,34.15s2.61,3.89,6.1,5.18H58.34a19.54,19.54,0,0,0,9.16-13H57.9s-.87,6.91-10,7.78-11.34-7.78-11.34-7.78A24.73,24.73,0,0,1,37,12.1c2.62-7.35,17-10.37,20.94.43h9.6s0-7.78-10-12.53H37s-4.36,2.16-6.1,4.75l-.22.65V.22Z"/><polygon class="cls-2" points="73.6 5.62 73.6 10.81 69.24 9.08 68.37 12.1 72.73 13.83 69.68 17.72 72.29 19.88 75.35 15.99 78.4 19.88 81.45 17.72 77.96 13.83 82.76 12.54 81.45 9.08 77.09 10.81 77.09 5.62 73.6 5.62"/>
      <polygon class="cls-2" points="0.33 15.99 0.33 23.77 2.51 23.77 2.51 20.32 6 20.32 6 19.02 2.51 19.02 2.51 17.29 6.43 17.29 6.43 15.99 0.33 15.99 0.33 15.99"/>
      <polygon class="cls-2" points="7.31 15.99 7.31 23.77 9.05 23.77 9.05 15.99 7.31 15.99 7.31 15.99"/>
      <polygon class="cls-2" points="9.49 15.99 9.49 17.72 11.67 17.72 11.67 23.77 13.85 23.77 13.85 17.29 16.03 17.29 16.03 15.99 9.49 15.99 9.49 15.99 9.49 15.99"/>
      <text class="cls-3" transform="translate(0 43.13) scale(0.81 0.9)">Fukuoka Institute of Technology, Junior College</text>
      <text class="cls-3" transform="translate(0 43.13) scale(0.81 0.9)">Fukuoka Institute of Technology, Junior College</text>
    </g>
  </g>
</svg>
